<svg width="24" height="22" viewBox="0 0 24 22" fill="none" xmlns="http://www.w3.org/2000/svg">
<g filter="url(#filter0_d_110_17)">
<path d="M7.8 0H16.2C19.4 0 22 2.6 22 5.8V14.2C22 15.7383 21.3889 17.2135 20.3012 18.3012C19.2135 19.3889 17.7383 20 16.2 20H7.8C4.6 20 2 17.4 2 14.2V5.8C2 4.26174 2.61107 2.78649 3.69878 1.69878C4.78649 0.61107 6.26174 0 7.8 0ZM7.6 2C6.64522 2 5.72955 2.37928 5.05442 3.05442C4.37928 3.72955 4 4.64522 4 5.6V14.4C4 16.39 5.61 18 7.6 18H16.4C17.3548 18 18.2705 17.6207 18.9456 16.9456C19.6207 16.2705 20 15.3548 20 14.4V5.6C20 3.61 18.39 2 16.4 2H7.6ZM17.25 3.5C17.5815 3.5 17.8995 3.6317 18.1339 3.86612C18.3683 4.10054 18.5 4.41848 18.5 4.75C18.5 5.08152 18.3683 5.39946 18.1339 5.63388C17.8995 5.8683 17.5815 6 17.25 6C16.9185 6 16.6005 5.8683 16.3661 5.63388C16.1317 5.39946 16 5.08152 16 4.75C16 4.41848 16.1317 4.10054 16.3661 3.86612C16.6005 3.6317 16.9185 3.5 17.25 3.5ZM12 5C13.3261 5 14.5979 5.52678 15.5355 6.46447C16.4732 7.40215 17 8.67392 17 10C17 11.3261 16.4732 12.5979 15.5355 13.5355C14.5979 14.4732 13.3261 15 12 15C10.6739 15 9.40215 14.4732 8.46447 13.5355C7.52678 12.5979 7 11.3261 7 10C7 8.67392 7.52678 7.40215 8.46447 6.46447C9.40215 5.52678 10.6739 5 12 5ZM12 7C11.2044 7 10.4413 7.31607 9.87868 7.87868C9.31607 8.44129 9 9.20435 9 10C9 10.7956 9.31607 11.5587 9.87868 12.1213C10.4413 12.6839 11.2044 13 12 13C12.7956 13 13.5587 12.6839 14.1213 12.1213C14.6839 11.5587 15 10.7956 15 10C15 9.20435 14.6839 8.44129 14.1213 7.87868C13.5587 7.31607 12.7956 7 12 7Z" fill="white"/>
</g>
<defs>
<filter id="filter0_d_110_17" x="-2" y="0" width="28" height="28" filterUnits="userSpaceOnUse" color-interpolation-filters="sRGB">
<feFlood flood-opacity="0" result="BackgroundImageFix"/>
<feColorMatrix in="SourceAlpha" type="matrix" values="0 0 0 0 0 0 0 0 0 0 0 0 0 0 0 0 0 0 127 0" result="hardAlpha"/>
<feOffset dy="4"/>
<feGaussianBlur stdDeviation="2"/>
<feComposite in2="hardAlpha" operator="out"/>
<feColorMatrix type="matrix" values="0 0 0 0 0 0 0 0 0 0 0 0 0 0 0 0 0 0 0.25 0"/>
<feBlend mode="normal" in2="BackgroundImageFix" result="effect1_dropShadow_110_17"/>
<feBlend mode="normal" in="SourceGraphic" in2="effect1_dropShadow_110_17" result="shape"/>
</filter>
</defs>
</svg>
