<svg width="24" height="21" viewBox="0 0 24 21" fill="none" xmlns="http://www.w3.org/2000/svg">
<g filter="url(#filter0_d_110_15)">
<path d="M18.335 15.339H15.67V11.162C15.67 10.166 15.65 8.884 14.28 8.884C12.891 8.884 12.679 9.968 12.679 11.089V15.339H10.013V6.75H12.573V7.92H12.608C12.966 7.246 13.836 6.533 15.136 6.533C17.836 6.533 18.336 8.311 18.336 10.624V15.339H18.335ZM7.003 5.575C6.79956 5.57526 6.59806 5.53537 6.41006 5.45761C6.22207 5.37984 6.05127 5.26574 5.90746 5.12184C5.76365 4.97793 5.64965 4.80706 5.57201 4.61901C5.49437 4.43097 5.4546 4.22944 5.455 4.026C5.4552 3.71983 5.54618 3.4206 5.71644 3.16615C5.8867 2.91169 6.12859 2.71343 6.41153 2.59645C6.69447 2.47947 7.00574 2.44902 7.30598 2.50894C7.60622 2.56886 7.88196 2.71647 8.09831 2.93311C8.31466 3.14974 8.46191 3.42566 8.52145 3.72598C8.58099 4.0263 8.55013 4.33753 8.43278 4.62032C8.31544 4.9031 8.11687 5.14474 7.86219 5.31467C7.60751 5.4846 7.30917 5.5752 7.003 5.575ZM8.339 15.339H5.666V6.75H8.34V15.339H8.339ZM19.67 0H4.329C3.593 0 3 0.58 3 1.297V16.703C3 17.42 3.594 18 4.328 18H19.666C20.4 18 21 17.42 21 16.703V1.297C21 0.58 20.4 0 19.666 0H19.67Z" fill="white"/>
</g>
<defs>
<filter id="filter0_d_110_15" x="-1" y="0" width="26" height="26" filterUnits="userSpaceOnUse" color-interpolation-filters="sRGB">
<feFlood flood-opacity="0" result="BackgroundImageFix"/>
<feColorMatrix in="SourceAlpha" type="matrix" values="0 0 0 0 0 0 0 0 0 0 0 0 0 0 0 0 0 0 127 0" result="hardAlpha"/>
<feOffset dy="4"/>
<feGaussianBlur stdDeviation="2"/>
<feComposite in2="hardAlpha" operator="out"/>
<feColorMatrix type="matrix" values="0 0 0 0 0 0 0 0 0 0 0 0 0 0 0 0 0 0 0.25 0"/>
<feBlend mode="normal" in2="BackgroundImageFix" result="effect1_dropShadow_110_15"/>
<feBlend mode="normal" in="SourceGraphic" in2="effect1_dropShadow_110_15" result="shape"/>
</filter>
</defs>
</svg>
