<svg width="29" height="29" viewBox="0 0 29 29" fill="none" xmlns="http://www.w3.org/2000/svg">
<g filter="url(#filter0_d_110_26)">
<path d="M23.2125 20.9042L16.4458 14.1375C15.8417 14.6208 15.1469 15.0035 14.3615 15.2854C13.576 15.5674 12.7403 15.7083 11.8542 15.7083C9.65903 15.7083 7.80142 14.9483 6.28133 13.4282C4.76044 11.9073 4 10.0493 4 7.85417C4 5.65903 4.76044 3.80101 6.28133 2.28013C7.80142 0.760042 9.65903 0 11.8542 0C14.0493 0 15.9073 0.760042 17.4282 2.28013C18.9483 3.80101 19.7083 5.65903 19.7083 7.85417C19.7083 8.74028 19.5674 9.57604 19.2854 10.3615C19.0035 11.1469 18.6208 11.8417 18.1375 12.4458L24.9344 19.2427C25.1559 19.4642 25.2667 19.7361 25.2667 20.0583C25.2667 20.3806 25.1458 20.6625 24.9042 20.9042C24.6826 21.1257 24.4007 21.2365 24.0583 21.2365C23.716 21.2365 23.434 21.1257 23.2125 20.9042ZM11.8542 13.2917C13.3646 13.2917 14.6486 12.7632 15.7063 11.7063C16.7632 10.6486 17.2917 9.36458 17.2917 7.85417C17.2917 6.34375 16.7632 5.05969 15.7063 4.002C14.6486 2.94511 13.3646 2.41667 11.8542 2.41667C10.3437 2.41667 9.05969 2.94511 8.002 4.002C6.94511 5.05969 6.41667 6.34375 6.41667 7.85417C6.41667 9.36458 6.94511 10.6486 8.002 11.7063C9.05969 12.7632 10.3437 13.2917 11.8542 13.2917Z" fill="#F9AA01"/>
</g>
<defs>
<filter id="filter0_d_110_26" x="0" y="0" width="29.2667" height="29.2363" filterUnits="userSpaceOnUse" color-interpolation-filters="sRGB">
<feFlood flood-opacity="0" result="BackgroundImageFix"/>
<feColorMatrix in="SourceAlpha" type="matrix" values="0 0 0 0 0 0 0 0 0 0 0 0 0 0 0 0 0 0 127 0" result="hardAlpha"/>
<feOffset dy="4"/>
<feGaussianBlur stdDeviation="2"/>
<feComposite in2="hardAlpha" operator="out"/>
<feColorMatrix type="matrix" values="0 0 0 0 0 0 0 0 0 0 0 0 0 0 0 0 0 0 0.25 0"/>
<feBlend mode="normal" in2="BackgroundImageFix" result="effect1_dropShadow_110_26"/>
<feBlend mode="normal" in="SourceGraphic" in2="effect1_dropShadow_110_26" result="shape"/>
</filter>
</defs>
</svg>
