<svg width="32" height="30" viewBox="0 0 32 30" fill="none" xmlns="http://www.w3.org/2000/svg">
<g filter="url(#filter0_d_110_24)">
<path d="M16 3C17.65 3 19 4.35 19 6C19 7.65 17.65 9 16 9C14.35 9 13 7.65 13 6C13 4.35 14.35 3 16 3ZM16 18C20.05 18 24.7 19.935 25 21H7C7.345 19.92 11.965 18 16 18ZM16 0C12.685 0 10 2.685 10 6C10 9.315 12.685 12 16 12C19.315 12 22 9.315 22 6C22 2.685 19.315 0 16 0ZM16 15C11.995 15 4 17.01 4 21V24H28V21C28 17.01 20.005 15 16 15Z" fill="#F9AA01"/>
</g>
<defs>
<filter id="filter0_d_110_24" x="0" y="0" width="32" height="32" filterUnits="userSpaceOnUse" color-interpolation-filters="sRGB">
<feFlood flood-opacity="0" result="BackgroundImageFix"/>
<feColorMatrix in="SourceAlpha" type="matrix" values="0 0 0 0 0 0 0 0 0 0 0 0 0 0 0 0 0 0 127 0" result="hardAlpha"/>
<feOffset dy="4"/>
<feGaussianBlur stdDeviation="2"/>
<feComposite in2="hardAlpha" operator="out"/>
<feColorMatrix type="matrix" values="0 0 0 0 0 0 0 0 0 0 0 0 0 0 0 0 0 0 0.25 0"/>
<feBlend mode="normal" in2="BackgroundImageFix" result="effect1_dropShadow_110_24"/>
<feBlend mode="normal" in="SourceGraphic" in2="effect1_dropShadow_110_24" result="shape"/>
</filter>
</defs>
</svg>
